:SAMPLES-PER-SECOND 30
:FULLY-SPECIFIED
:DEGREES
1025
root  71.6627 40.0109 -2.4374 -67.9971 -85.5202 64.0931
RightUpLeg  -1.50211 -14.691 -18.3568
RightLeg  4.50708 -13.4999 2.21974
RightFoot  6.79973 -1.13956 7.42134
RightToes  -1.16417e-010 0 -3.6325e-017
Spine  10.4801 -0.484932 2.22668
Spine1  13.2256 1.15308 -4.85944
HEad  -12.0298 1.85426 0.58324
LeftShoulder1  10.2934 -14.5025 -49.9114
LeftArm  -10.8855 -9.1351 -19.7277
LeftForeArm  27.5221 -9.17979 -6.27225
LeftHand  -0.244104 0.0205437 5.32207
RightShoulder  6.99295 11.8166 39.5279
RightArm  -4.27693 13.9084 32.8869
RightForeArm  -5.26078 17.732 6.06878
RightHand  -1.88792 5.00067 -21.1484
LeftUpLeg  -1.30923 5.67369 -1.24685
LeftLeg  7.51534 19.2514 -3.36655
LeftFoot  -2.5377 -0.0795295 1.23207
LeftToes  -2.09216e-011 1.96776e-011 -5.83545e-012
1026
root  71.8529 39.9893 -2.48844 -64.3472 -85.2601 60.3856
RightUpLeg  -1.82221 -14.9925 -18.5108
RightLeg  4.97191 -13.5617 2.30906
RightFoot  6.84495 -1.08916 7.09037
RightToes  -1.16417e-010 0 -3.6325e-017
Spine  11.3468 -0.810512 1.93709
Spine1  12.3429 0.593073 -4.28769
HEad  -12.5032 2.22921 0.2382
LeftShoulder1  10.186 -14.7803 -48.6395
LeftArm  -14.6623 -16.6425 -19.9444
LeftForeArm  22.6579 -11.208 -5.46122
LeftHand  -0.244104 0.0205437 5.32207
RightShoulder  6.89058 11.8476 38.8032
RightArm  -2.17908 19.666 33.5746
RightForeArm  -8.96769 20.9088 5.59164
RightHand  -2.05825 5.39946 -22.1742
LeftUpLeg  -1.75121 6.01984 -1.36705
LeftLeg  7.82941 18.5813 -3.19949
LeftFoot  -2.28991 -0.0897107 1.30834
LeftToes  -2.09216e-011 1.96776e-011 -5.83545e-012
1027
root  72.0176 39.9692 -2.5425 -61.1049 -85.0581 57.1005
RightUpLeg  -2.08863 -15.2214 -18.5793
RightLeg  5.34245 -13.6626 2.37725
RightFoot  6.87861 -1.0637 6.92037
RightToes  -1.16417e-010 0 -3.6325e-017
Spine  12.1103 -1.07075 1.44187
Spine1  11.5748 0.00430468 -3.4384
HEad  -13.334 2.69689 -0.516073
LeftShoulder1  10.0574 -15.079 -47.2334
LeftArm  -17.1052 -23.667 -20.149
LeftForeArm  19.8418 -13.4185 -4.88971
LeftHand  -0.244104 0.0205437 5.32207
RightShoulder  6.74563 11.8439 37.907
RightArm  -2.267 24.7004 34.2816
RightForeArm  -10.3294 24.594 5.71367
RightHand  -2.23245 5.8237 -23.1105
LeftUpLeg  -2.17258 6.30119 -1.45302
LeftLeg  8.15132 18.0143 -2.96873
LeftFoot  -2.09373 -0.0919982 1.2941
LeftToes  -2.09216e-011 1.96776e-011 -5.83545e-012
1028
root  72.1329 39.9636 -2.60137 -62.4963 -85.153 58.4976
RightUpLeg  -2.35814 -15.2619 -18.4397
RightLeg  5.38783 -13.5424 2.46843
RightFoot  7.02217 -1.04929 6.78294
RightToes  -1.16417e-010 0 -3.6325e-017
Spine  12.4328 -1.1295 1.02081
Spine1  11.3436 -0.307307 -2.74301
HEad  -14.3653 3.14543 -1.10171
LeftShoulder1  9.84434 -15.2728 -45.7137
LeftArm  -17.8017 -30.157 -20.161
LeftForeArm  18.9714 -16.0932 -4.47575
LeftHand  -0.244104 0.0205437 5.32207
RightShoulder  6.62288 11.8988 36.9854
RightArm  -4.04187 28.9221 34.7304
RightForeArm  -9.63317 28.9731 6.78673
RightHand  -2.42738 6.37769 -23.917
LeftUpLeg  -2.41728 6.3843 -1.38023
LeftLeg  8.25305 18.0833 -2.85774
LeftFoot  -1.91811 -0.0902009 1.23502
LeftToes  -2.09216e-011 1.96776e-011 -5.83545e-012
1029
root  72.2084 39.9715 -2.66391 -65.7849 -85.3786 61.8528
RightUpLeg  -2.58121 -15.1841 -18.1965
RightLeg  5.19111 -13.4064 2.61603
RightFoot  7.22152 -1.01929 6.53416
RightToes  -1.16417e-010 0 -3.6325e-017
Spine  12.5117 -1.11341 0.787586
Spine1  11.2276 -0.428461 -2.35679
HEad  -15.1922 3.39533 -1.05965
LeftShoulder1  9.52814 -15.3303 -44.0403
LeftArm  -17.4628 -35.5774 -20.3755
LeftForeArm  19.4969 -19.7887 -4.02475
LeftHand  -0.244104 0.0205437 5.32207
RightShoulder  6.5583 12.0496 36.1746
RightArm  -5.38526 32.0853 34.8329
RightForeArm  -9.73616 34.3658 8.23406
RightHand  -2.69878 7.1135 -24.9791
LeftUpLeg  -2.53968 6.38685 -1.18756
LeftLeg  8.14239 18.3971 -2.89946
LeftFoot  -1.71776 -0.0908884 1.20384
LeftToes  -2.09216e-011 1.96776e-011 -5.83545e-012
1030
root  72.2594 39.9822 -2.72194 -66.853 -85.5091 63.005
RightUpLeg  -2.64112 -15.0911 -18.002
RightLeg  4.8782 -13.4836 2.79035
RightFoot  7.39825 -1.00714 6.40525
RightToes  -1.16417e-010 0 -3.6325e-017
Spine  12.6526 -1.16489 0.629416
Spine1  10.8371 -0.589137 -2.06328
HEad  -15.9526 3.55831 -0.937522
LeftShoulder1  9.19944 -15.3157 -42.4666
LeftArm  -18.3247 -39.5067 -20.9411
LeftForeArm  21.8696 -24.8392 -4.09994
LeftHand  -0.244104 0.0205437 5.32207
RightShoulder  6.49008 12.16 35.4565
RightArm  -6.57504 34.3579 34.7024
RightForeArm  -10.2284 40.5277 10.1992
RightHand  -3.06258 7.97756 -26.4523
LeftUpLeg  -2.63796 6.44148 -0.99043
LeftLeg  7.98989 18.4529 -2.99177
LeftFoot  -1.52114 -0.0940479 1.20311
LeftToes  -2.09216e-011 1.96776e-011 -5.83545e-012
1031
root  72.2895 39.9929 -2.76599 -66.9326 -85.5855 63.1347
RightUpLeg  -2.56178 -14.9897 -17.8615
RightLeg  4.4794 -13.6116 2.93344
RightFoot  7.58654 -1.02197 6.43727
RightToes  -1.16417e-010 0 -3.6325e-017
Spine  12.9695 -1.2166 0.384885
Spine1  10.1782 -0.79439 -1.6462
HEad  -16.9213 3.87273 -1.40638
LeftShoulder1  8.99631 -15.3277 -41.4317
LeftArm  -20.9376 -42.094 -21.3119
LeftForeArm  25.8381 -30.9837 -5.33594
LeftHand  -0.244104 0.0205437 5.32207
RightShoulder  6.32404 12.0332 34.7381
RightArm  -7.73439 36.4521 34.5509
RightForeArm  -9.84319 46.5695 12.5105
RightHand  -3.33747 8.50326 -27.6865
LeftUpLeg  -2.67336 6.47538 -0.840341
LeftLeg  7.83804 18.4464 -3.07171
LeftFoot  -1.36478 -0.0975773 1.20959
LeftToes  -2.09216e-011 1.96776e-011 -5.83545e-012
1032
root  72.3057 40.007 -2.79583 -70.4838 -85.7367 66.6753
RightUpLeg  -2.49969 -14.8564 -17.7048
RightLeg  4.07121 -13.4789 3.02304
RightFoot  7.82504 -1.00714 6.27845
RightToes  -1.16417e-010 0 -3.6325e-017
Spine  13.4336 -1.16701 0.114838
Spine1  9.35859 -0.874047 -1.29267
HEad  -17.8088 4.39859 -2.02181
LeftShoulder1  8.93062 -15.4029 -40.9267
LeftArm  -22.7328 -44.0067 -21.1523
LeftForeArm  28.668 -37.2342 -6.76822
LeftHand  -0.244104 0.0205437 5.32207
RightShoulder  6.06358 11.7098 33.9025
RightArm  -8.86702 39.0509 34.5209
RightForeArm  -8.38894 51.3647 14.7286
RightHand  -3.27913 8.11014 -27.9682
LeftUpLeg  -2.55812 6.38801 -0.718688
LeftLeg  7.61203 18.8108 -3.15378
LeftFoot  -1.23159 -0.101397 1.2344
LeftToes  -2.09216e-011 1.96776e-011 -5.83545e-012
1033
root  72.3226 40.0215 -2.82018 -78.4677 -85.9407 74.6066
RightUpLeg  -2.55659 -14.7022 -17.4996
RightLeg  3.76594 -13.0574 3.06929
RightFoot  8.07284 -0.944942 5.84386
RightToes  -1.16417e-010 0 -3.6325e-017
Spine  13.843 -1.08953 0.126622
Spine1  8.58309 -0.749129 -1.46606
HEad  -18.1119 4.93814 -1.80101
LeftShoulder1  8.85386 -15.4638 -40.4019
LeftArm  -23.6793 -45.9787 -20.8451
LeftForeArm  29.8929 -42.0713 -8.11636
LeftHand  -0.244104 0.0205437 5.32207
RightShoulder  5.79491 11.4599 32.7806
RightArm  -10.1613 42.2244 34.8048
RightForeArm  -7.07468 54.3757 16.397
RightHand  -2.97871 7.09242 -27.4932
LeftUpLeg  -2.34926 6.25187 -0.590852
LeftLeg  7.34722 19.5059 -3.24055
LeftFoot  -1.11007 -0.106263 1.28175
LeftToes  -2.09216e-011 1.96776e-011 -5.83545e-012
1034
root  72.3454 40.0308 -2.84503 -87.5621 -86.0887 83.6626
RightUpLeg  -2.69259 -14.5269 -17.2465
RightLeg  3.55269 -12.6231 3.07543
RightFoot  8.27918 -0.891671 5.48182
RightToes  -1.16417e-010 0 -3.6325e-017
Spine  13.9383 -1.08652 0.578046
Spine1  8.12906 -0.500636 -2.23012
HEad  -17.9251 5.20745 -0.916997
LeftShoulder1  8.65479 -15.4159 -39.5167
LeftArm  -23.7269 -48.3518 -21.145
LeftForeArm  28.7327 -44.5063 -9.00743
LeftHand  -0.244104 0.0205437 5.32207
RightShoulder  5.55055 11.4047 31.2791
RightArm  -11.7755 45.5254 35.4849
RightForeArm  -7.00884 55.684 17.258
RightHand  -2.71819 6.31136 -26.795
LeftUpLeg  -2.19843 6.185 -0.437544
LeftLeg  7.16509 20.1685 -3.30043
LeftFoot  -1.03001 -0.108947 1.30294
LeftToes  -2.09216e-011 1.96776e-011 -5.83545e-012
1035
root  72.3692 40.0366 -2.866 -93.9692 -86.171 90.0813
RightUpLeg  -2.83835 -14.35 -16.9933
RightLeg  3.40478 -12.4154 3.0467
RightFoot  8.40463 -0.866668 5.30818
RightToes  -1.16417e-010 0 -3.6325e-017
Spine  13.7624 -1.10411 1.17217
Spine1  7.93871 -0.262587 -2.99321
HEad  -17.7689 5.09735 -0.531391
LeftShoulder1  8.41662 -15.3055 -38.5662
LeftArm  -22.9007 -50.8829 -22.2543
LeftForeArm  25.5376 -44.4475 -9.21652
LeftHand  -0.244104 0.0205437 5.32207
RightShoulder  5.27979 11.3428 29.5844
RightArm  -13.2721 48.6318 36.3259
RightForeArm  -8.71129 55.2188 17.0851
RightHand  -2.55833 5.96257 -26.0265
LeftUpLeg  -2.16796 6.18271 -0.286147
LeftLeg  7.08976 20.5716 -3.32385
LeftFoot  -1.00705 -0.106066 1.25464
LeftToes  -2.09216e-011 1.96776e-011 -5.83545e-012
